<?xml version="1.0" encoding="utf-8"?>
<!-- Svg Vector Icons : http://www.onlinewebfonts.com/icon -->
<!DOCTYPE svg PUBLIC "-//W3C//DTD SVG 1.1//EN" "http://www.w3.org/Graphics/SVG/1.1/DTD/svg11.dtd">
<svg version="1.1" xmlns="http://www.w3.org/2000/svg" xmlns:xlink="http://www.w3.org/1999/xlink" x="0px" y="0px" viewBox="0 0 256 256" enable-background="new 0 0 256 256" xml:space="preserve">
<metadata> Svg Vector Icons : http://www.onlinewebfonts.com/icon </metadata>
<g><g><g><path fill="#000000" d="M67.1,10.4c-13.5,1.7-24,7-30.4,15.2c-7,9.1-8.6,21.6-4,31.3c2.1,4.3,6.9,9.1,11.2,11.2c9.5,4.6,20.5,2.7,27.9-4.7c6.9-6.9,9-16.3,5.7-25.9c-1.4-4.2-1.5-4,4.6-6.9c9.1-4.2,17.2-3.4,26.1,2.5c13.8,9.3,21.8,29.2,19.9,49.5c-0.9,10.1-4.6,22.1-9.9,32.7c-4,8-12.4,20.1-31.1,44.7c-33.9,44.8-45.4,63.4-46.5,75.3c-0.5,5.7,2.4,9,8.8,9.4c12.3,1,27.1-11.5,40.5-34.1c3.4-5.8,26-50.8,34.9-69.3c3.7-7.8,3.2-8.3,4.6,3.9c3.1,28.5,10.3,53.2,20.8,70.8c7,11.9,17.3,21.9,27.2,26.3c6,2.7,10.2,3.6,16.9,3.6c10.2,0,17.1-2.6,23.5-9c4.4-4.3,6.4-8.1,7.6-14c2.8-13.4-6.4-26.5-20.1-28.6c-13.3-2.1-25.5,6.7-27.8,19.9c-0.5,3.1-0.3,7.4,0.4,9.3c0.6,1.6-0.9,0.2-2.5-2.4c-3.1-4.9-3.8-7.5-9.9-38c-5.9-29.5-11.7-57.7-22-107.2c-5.5-26.2-6.1-28.2-10.3-35.2c-7.9-13.1-19.7-22.6-33.8-27.4C91,10.6,76.8,9.3,67.1,10.4z"/></g></g></g>
</svg>